<svg xmlns="http://www.w3.org/2000/svg" viewBox="0 0 64 64" role="img" aria-label="VS Cursos">
  <defs>
    <linearGradient id="blue" x1="8" y1="8" x2="54" y2="56" gradientUnits="userSpaceOnUse">
      <stop stop-color="#2558f4"/>
      <stop offset="1" stop-color="#173bb5"/>
    </linearGradient>
  </defs>
  <rect width="64" height="64" rx="12" fill="#ffffff"/>
  <rect x="5" y="5" width="54" height="54" rx="10" fill="#ffffff" stroke="#dbe3ef" stroke-width="2"/>
  <path d="M9 16h9.6l6.2 25.2L31 16h9.1L29.9 48H19.2L9 16Z" fill="url(#blue)"/>
  <path d="M35.6 24.6c0-5.5 4.3-8.8 10.7-8.8 3.5 0 6.9.8 9.8 2.4v7.8c-2.7-1.8-6.1-3-9.4-3-1.8 0-2.9.5-2.9 1.7 0 4.7 13.8 2.7 13.8 13.5 0 6.7-4.9 10.4-12.2 10.4-4.1 0-8-1-11.2-3.1v-8.2c3.2 2.4 7.2 4 10.8 4 2.5 0 3.8-.7 3.8-2.1 0-4.5-13.2-2.8-13.2-14.6Z" fill="#667386"/>
  <rect x="10" y="52" width="44" height="3" rx="1.5" fill="url(#blue)"/>
</svg>
